<svg width="640" height="520" viewBox="0 0 640 520" fill="none" xmlns="http://www.w3.org/2000/svg">
  <rect width="640" height="520" rx="42" fill="#FFF7F9"/>

  <!-- Background shapes -->
  <circle cx="112" cy="86" r="92" fill="#FFEDF3"/>
  <circle cx="540" cy="104" r="132" fill="#FFEDF3"/>
  <circle cx="526" cy="438" r="100" fill="#FFE7EE"/>

  <path d="M-44 386C90 298 188 368 314 288C422 220 492 202 684 244" stroke="#E6002D" stroke-width="36" stroke-linecap="round" opacity="0.10"/>
  <path d="M-28 425C116 340 218 406 346 320C468 238 520 244 690 298" stroke="#EC1B5B" stroke-width="20" stroke-linecap="round" opacity="0.14"/>

  <!-- Brand card -->
  <rect x="58" y="62" width="220" height="132" rx="26" fill="white" stroke="#F7C7D2"/>
  <rect x="82" y="90" width="62" height="62" rx="18" fill="#E6002D"/>
  <path d="M103 106H115V134H135V145H103V106Z" fill="white"/>
  <circle cx="136" cy="106" r="5" fill="#FFD35A"/>
  <rect x="162" y="96" width="82" height="13" rx="6.5" fill="#172033" opacity="0.92"/>
  <rect x="162" y="123" width="70" height="10" rx="5" fill="#667085" opacity="0.38"/>
  <rect x="162" y="145" width="90" height="10" rx="5" fill="#E6002D" opacity="0.18"/>

  <!-- KPI / checklist card -->
  <rect x="330" y="52" width="244" height="176" rx="30" fill="white" stroke="#F7C7D2"/>
  <rect x="358" y="82" width="78" height="18" rx="9" fill="#172033"/>
  <rect x="358" y="116" width="172" height="12" rx="6" fill="#E6002D" opacity="0.18"/>
  <rect x="358" y="143" width="134" height="12" rx="6" fill="#EC1B5B" opacity="0.16"/>
  <rect x="358" y="170" width="156" height="12" rx="6" fill="#FFD35A" opacity="0.72"/>
  <circle cx="524" cy="88" r="20" fill="#FFEDF3"/>
  <path d="M516 88L522 94L534 80" stroke="#E6002D" stroke-width="5" stroke-linecap="round" stroke-linejoin="round"/>

  <!-- CRM card -->
  <rect x="78" y="244" width="236" height="176" rx="30" fill="white" stroke="#F7C7D2"/>
  <rect x="106" y="276" width="84" height="16" rx="8" fill="#172033"/>
  <rect x="106" y="310" width="176" height="12" rx="6" fill="#667085" opacity="0.28"/>
  <rect x="106" y="336" width="138" height="12" rx="6" fill="#667085" opacity="0.22"/>
  <rect x="106" y="364" width="92" height="34" rx="17" fill="#E6002D"/>
  <text x="152" y="386" text-anchor="middle" fill="white" font-family="Arial, Helvetica, sans-serif" font-size="15" font-weight="800">
    CRM
  </text>
  <rect x="218" y="364" width="72" height="34" rx="17" fill="#FFEDF3"/>
  <text x="254" y="386" text-anchor="middle" fill="#E6002D" font-family="Arial, Helvetica, sans-serif" font-size="15" font-weight="800">
    KPI
  </text>

  <!-- Main character -->
  <g transform="translate(326 210)">
    <ellipse cx="116" cy="222" rx="126" ry="30" fill="#E6002D" opacity="0.10"/>

    <path d="M66 190C72 134 160 134 166 190L174 276H58L66 190Z" fill="#E6002D"/>
    <path d="M76 190C82 150 150 150 156 190L162 276H70L76 190Z" fill="#EC1B5B"/>

    <circle cx="116" cy="72" r="54" fill="#FFD3DD"/>
    <path d="M68 72C68 38 90 18 120 18C152 18 172 40 172 72V86H158C154 54 140 38 116 38C92 38 78 54 74 86H68V72Z" fill="#172033"/>
    <path d="M90 78C90 66 100 56 112 56H122C134 56 144 66 144 78V92C144 108 132 120 117 120C102 120 90 108 90 92V78Z" fill="#FFD3DD"/>
    <path d="M103 88C107 92 112 94 117 94C122 94 127 92 131 88" stroke="#172033" stroke-width="4" stroke-linecap="round"/>

    <path d="M76 76C52 76 38 92 38 114C38 136 52 152 76 152" stroke="#172033" stroke-width="10" stroke-linecap="round"/>
    <path d="M158 76C182 76 196 92 196 114C196 136 182 152 158 152" stroke="#172033" stroke-width="10" stroke-linecap="round"/>
    <path d="M158 152C150 174 132 184 110 184" stroke="#172033" stroke-width="8" stroke-linecap="round"/>
    <circle cx="104" cy="184" r="10" fill="#E6002D"/>

    <rect x="14" y="146" width="54" height="78" rx="18" fill="#FFFFFF" stroke="#F7C7D2"/>
    <rect x="164" y="146" width="54" height="78" rx="18" fill="#FFFFFF" stroke="#F7C7D2"/>
    <path d="M68 166L88 210" stroke="#FFD3DD" stroke-width="20" stroke-linecap="round"/>
    <path d="M164 166L144 210" stroke="#FFD3DD" stroke-width="20" stroke-linecap="round"/>

    <rect x="82" y="128" width="68" height="28" rx="14" fill="white"/>
    <text x="116" y="147" text-anchor="middle" fill="#E6002D" font-family="Arial, Helvetica, sans-serif" font-size="13" font-weight="900">
      SALES
    </text>
  </g>

  <!-- Bottom badges: deliberately left / center only to keep bottom-right empty -->
  <g transform="translate(62 454)">
    <rect width="194" height="42" rx="21" fill="#E6002D"/>
    <text x="97" y="28" text-anchor="middle" fill="white" font-family="Arial, Helvetica, sans-serif" font-size="16" font-weight="900">
      Data có sẵn
    </text>
  </g>

  <g transform="translate(268 454)">
    <rect width="132" height="42" rx="21" fill="#FFEDF3" stroke="#E6002D" stroke-opacity="0.18"/>
    <text x="66" y="28" text-anchor="middle" fill="#E6002D" font-family="Arial, Helvetica, sans-serif" font-size="16" font-weight="900">
      Đào tạo
    </text>
  </g>
</svg>