<svg width="1200" height="630" viewBox="0 0 1200 630" fill="none" xmlns="http://www.w3.org/2000/svg">
  <rect width="1200" height="630" fill="#FFF7F9"/>

  <circle cx="1040" cy="70" r="210" fill="#FFEDF3"/>
  <circle cx="120" cy="540" r="190" fill="#FFEDF3"/>
  <path d="M-80 480C160 360 390 430 610 300C800 188 990 154 1280 210" stroke="#E6002D" stroke-width="42" stroke-linecap="round" opacity="0.12"/>
  <path d="M-50 520C180 395 435 470 650 338C850 215 1010 202 1280 260" stroke="#EC1B5B" stroke-width="22" stroke-linecap="round" opacity="0.16"/>

  <rect x="70" y="58" width="1060" height="514" rx="44" fill="white" stroke="rgba(230,0,45,0.14)" stroke-width="2"/>
  <rect x="70" y="58" width="1060" height="514" rx="44" fill="url(#paint0_linear)" opacity="0.08"/>

  <g transform="translate(112 104)">
    <rect width="76" height="76" rx="22" fill="#E6002D"/>
    <path d="M24 18H38V50H60V62H24V18Z" fill="white"/>
    <circle cx="58" cy="18" r="6" fill="#FFD35A"/>
  </g>

  <text x="210" y="136" fill="#172033" font-family="Arial, Helvetica, sans-serif" font-size="32" font-weight="800">
    Lotte Finance Careers
  </text>
  <text x="210" y="174" fill="#667085" font-family="Arial, Helvetica, sans-serif" font-size="22" font-weight="600">
    Tuyển dụng Telesales Hà Nội
  </text>

  <text x="112" y="270" fill="#172033" font-family="Arial, Helvetica, sans-serif" font-size="62" font-weight="900">
    Lotte Finance tuyển dụng
  </text>
  <text x="112" y="344" fill="#E6002D" font-family="Arial, Helvetica, sans-serif" font-size="66" font-weight="900">
    Telesales tại Hà Nội
  </text>

  <text x="112" y="400" fill="#4F5667" font-family="Arial, Helvetica, sans-serif" font-size="28" font-weight="600">
    Data có sẵn • Thu nhập 12–30 triệu/tháng • Làm việc tại 288 Nguyễn Xiển
  </text>

  <g transform="translate(112 446)">
    <rect width="244" height="54" rx="27" fill="#E6002D"/>
    <text x="122" y="35" text-anchor="middle" fill="white" font-family="Arial, Helvetica, sans-serif" font-size="22" font-weight="800">
      Ứng tuyển ngay
    </text>
  </g>

  <g transform="translate(380 446)">
    <rect width="255" height="54" rx="27" fill="#FFEDF3" stroke="#E6002D" stroke-opacity="0.22"/>
    <text x="128" y="35" text-anchor="middle" fill="#E6002D" font-family="Arial, Helvetica, sans-serif" font-size="22" font-weight="800">
      Zalo 0354 093 783
    </text>
  </g>

  <g transform="translate(780 172)">
    <rect width="260" height="330" rx="32" fill="#FFF7F9" stroke="#E6002D" stroke-opacity="0.14"/>
    <circle cx="130" cy="94" r="58" fill="#FFEDF3"/>
    <path d="M104 92C104 77.64 115.64 66 130 66C144.36 66 156 77.64 156 92C156 106.36 144.36 118 130 118C115.64 118 104 106.36 104 92Z" fill="#E6002D"/>
    <path d="M74 198C84 164 103 146 130 146C157 146 176 164 186 198" stroke="#E6002D" stroke-width="22" stroke-linecap="round"/>
    <rect x="54" y="236" width="152" height="18" rx="9" fill="#EC1B5B" opacity="0.28"/>
    <rect x="54" y="270" width="118" height="18" rx="9" fill="#E6002D" opacity="0.2"/>
    <rect x="54" y="304" width="88" height="18" rx="9" fill="#FFD35A" opacity="0.9"/>
  </g>

  <defs>
    <linearGradient id="paint0_linear" x1="70" y1="58" x2="1130" y2="572" gradientUnits="userSpaceOnUse">
      <stop stop-color="#E6002D"/>
      <stop offset="1" stop-color="#EC1B5B"/>
    </linearGradient>
  </defs>
</svg>